<?xml version="1.0" encoding="utf-8"?>
<!-- Generator: Adobe Illustrator 27.8.1, SVG Export Plug-In . SVG Version: 6.00 Build 0)  -->
<svg version="1.1" id="Layer_1" xmlns="http://www.w3.org/2000/svg" xmlns:xlink="http://www.w3.org/1999/xlink" x="0px" y="0px"
	 viewBox="0 0 200 110" style="enable-background:new 0 0 200 110;" xml:space="preserve">
<style type="text/css">
	.st0{display:none;}
	.st1{display:inline;}
	.st2{fill:none;stroke:#000000;stroke-linecap:round;stroke-linejoin:round;stroke-miterlimit:10;}
	.st3{font-family:'QuettaDemo';}
	.st4{font-size:41.8339px;}
	.st5{font-family:'Cocogoose';}
	.st6{font-size:25.0354px;}
</style>
<g id="Layer_1_00000143582428962337061700000016385268877807091079_" class="st0">
</g>
<g id="Layer_2_00000047740070846376556760000014885341427035064736_" class="st0">
	<g class="st1">
		<path class="st2" d="M84.7,58.3c0.2-1.1,1.2-6.4,3.6-7.8c-1.5-1-5.7-4.3-5.8-7.9s3-7.6,3.4-8.2c0.4-0.7,2.4-9.8,2.9-10
			c0.5-0.1,3.6,6.4,3.6,6.4s6.6-3,10.7,2c0,0,5.2-5.2,6.3-5.3c1,0.5,1.9,6.4,0.6,11.3s-6.6,10.4-8.9,11.9s-12.9,5.1-15,13.5
			c-0.5,2.1-1,5.5-0.9,6.5c-0.3,0.6-8.5,7.8-3.7,11.8c0,0,3.8,2.8,9.9,1.6"/>
		<path class="st2" d="M106.7,54.4c0,0,7.5,9.1,5.6,19.7c-1.1,3.8-6.1,9.5-10.4,10.5c0,0-2.7-3.5,1.2-7.7c2.7-2.3,10.9-4.8,13.5-6.7
			s5.3-4.9,2.1-10.3c-3.2-5.4-1.3-7.1,0.4-9.1"/>
	</g>
	<g class="st1">
		<text transform="matrix(1 0 0 1 49.3519 53.1267)" class="st3 st4">HenCat</text>
		<text transform="matrix(1 0 0 1 41.3242 81.2215)" class="st5 st6">DESIGNS</text>
	</g>
</g>
<g id="Layer_2_copy">
	<g>
		<g>
			<path d="M58.9,72c0,0.9-0.1,1.7-0.3,2.5s-0.5,1.5-1,2.2c-0.4,0.7-0.9,1.3-1.5,1.9s-1.2,1-1.9,1.4s-1.5,0.7-2.3,0.9
				s-1.7,0.3-2.5,0.3h-6.2c-0.2,0-0.3,0-0.4-0.1c-0.1-0.1-0.2-0.2-0.2-0.4V63.2c0-0.2,0-0.3,0.1-0.4c0.1-0.1,0.2-0.2,0.4-0.2h6.2
				c0.9,0,1.7,0.1,2.5,0.3s1.6,0.5,2.3,0.9s1.4,0.9,1.9,1.4c0.6,0.6,1.1,1.2,1.5,1.9s0.7,1.4,1,2.2C58.8,70.3,58.9,71.1,58.9,72z
				 M47.5,67.2v9.6h1.1c0.2,0,0.4,0,0.6,0c0.2,0,0.4,0,0.6,0c0.6,0,1.2-0.2,1.8-0.5c0.5-0.3,1-0.6,1.4-1s0.7-0.9,1-1.5
				c0.2-0.6,0.3-1.2,0.3-1.8c0-0.7-0.1-1.3-0.4-1.9c-0.3-0.6-0.6-1.1-1.1-1.5s-1-0.8-1.6-1s-1.2-0.4-1.9-0.4
				C49.2,67.2,47.5,67.2,47.5,67.2z"/>
			<path d="M62.2,63.2c0-0.2,0-0.3,0.1-0.4s0.2-0.2,0.4-0.2h12.4c0.2,0,0.3,0.1,0.4,0.2s0.2,0.3,0.2,0.4v3.1c0,0.1-0.1,0.3-0.2,0.4
				c-0.1,0.1-0.2,0.2-0.4,0.2H67V70h6.3c0.2,0,0.3,0,0.4,0.1s0.2,0.2,0.2,0.4v2.7c0,0.1,0,0.2-0.1,0.3s-0.2,0.2-0.4,0.2h-6.3v3.2
				h8.4c0.4,0,0.6,0.2,0.6,0.6v3.1c0,0.1,0,0.2-0.1,0.2c0,0.2-0.2,0.3-0.5,0.3H62.7c-0.2,0-0.3,0-0.4-0.1c-0.1-0.1-0.1-0.2-0.1-0.4
				V63.2z"/>
			<path d="M81.4,75.3c0.1,0.1,0.3,0.3,0.5,0.5s0.5,0.4,0.8,0.6c0.4,0.3,0.8,0.5,1.3,0.7c0.4,0.2,0.9,0.2,1.3,0.2s0.8,0,1.1-0.1
				c0.3-0.1,0.5-0.2,0.7-0.4c0.2-0.2,0.3-0.3,0.4-0.5s0.1-0.4,0.1-0.7c0-0.3-0.1-0.5-0.3-0.7c-0.2-0.2-0.4-0.4-0.7-0.5
				s-0.7-0.5-1-0.6s-0.6-0.2-0.8-0.3c-1-0.3-1.9-0.7-2.6-1.1c-0.8-0.4-1.4-0.9-1.9-1.4s-0.9-1-1.1-1.6c-0.3-0.6-0.4-1.3-0.4-2
				c0-0.8,0.2-1.5,0.5-2.1s0.8-1.2,1.3-1.6s1.3-0.8,2.1-1s1.7-0.4,2.7-0.4c0.8,0,1.5,0.1,2.2,0.3s1.4,0.4,2.1,0.8
				c0.3,0.2,0.6,0.3,0.8,0.5c0.3,0.2,0.5,0.4,0.7,0.5s0.3,0.3,0.5,0.5c0.1,0.2,0.2,0.3,0.2,0.4s0,0.2-0.1,0.3s-0.1,0.2-0.2,0.3
				l-1.9,2c-0.1,0.1-0.3,0.2-0.4,0.2s-0.2,0-0.3-0.1c-0.1-0.1-0.2-0.1-0.3-0.2l-0.1-0.1c-0.2-0.1-0.4-0.3-0.6-0.4s-0.4-0.3-0.7-0.4
				c-0.2-0.1-0.5-0.2-0.7-0.3c-0.3-0.1-0.5-0.1-0.8-0.1s-0.5,0-0.8,0.1c-0.2,0-0.5,0.1-0.6,0.2c-0.2,0.1-0.3,0.2-0.4,0.4
				c-0.1,0.2-0.2,0.4-0.2,0.6s0.1,0.4,0.2,0.6s0.3,0.3,0.5,0.5c0.2,0.1,0.5,0.3,0.9,0.4c0.3,0.1,0.7,0.3,1.2,0.4
				c0.9,0.3,1.7,0.6,2.4,0.9c0.7,0.3,1.4,0.7,1.9,1.1s1,1,1.3,1.6s0.5,1.3,0.5,2.2c0,0.9-0.2,1.8-0.6,2.5s-0.9,1.4-1.5,1.9
				c-0.7,0.5-1.4,0.9-2.3,1.2c-0.9,0.3-1.8,0.4-2.9,0.4c-1,0-1.9-0.2-2.8-0.5s-1.8-0.8-2.6-1.4c-0.3-0.2-0.6-0.5-0.8-0.7
				c-0.2-0.2-0.4-0.4-0.5-0.6l0,0l0,0l0,0l0,0l0,0c-0.2-0.2-0.3-0.4-0.3-0.5s0.1-0.3,0.3-0.5l2.2-2.1c0.2-0.1,0.3-0.2,0.4-0.2
				s0.2,0,0.2,0.1C81.2,75.1,81.3,75.2,81.4,75.3z"/>
			<path d="M95.6,63.2c0-0.2,0-0.3,0.1-0.4c0.1-0.1,0.2-0.2,0.4-0.2h3.7c0.1,0,0.3,0,0.4,0.2c0.1,0.1,0.2,0.2,0.2,0.4v17.5
				c0,0.4-0.2,0.6-0.6,0.6h-3.7c-0.4,0-0.6-0.2-0.6-0.6L95.6,63.2L95.6,63.2z"/>
			<path d="M116.2,67.9c-0.4-0.3-0.9-0.5-1.4-0.7s-1-0.2-1.6-0.2c-0.7,0-1.3,0.1-1.9,0.4s-1.1,0.6-1.5,1.1s-0.7,1-1,1.6
				s-0.4,1.2-0.4,1.9c0,0.7,0.1,1.3,0.4,1.9c0.2,0.6,0.6,1.1,1,1.6c0.4,0.4,0.9,0.8,1.5,1.1c0.6,0.3,1.2,0.4,1.9,0.4
				c0.3,0,0.6,0,0.9-0.1c0.3,0,0.6-0.1,0.9-0.2v-3.3c0-0.2,0-0.3,0.1-0.4s0.2-0.2,0.4-0.2h3.4c0.1,0,0.3,0.1,0.4,0.2
				s0.2,0.2,0.2,0.4v6.1c0,0.2-0.1,0.4-0.4,0.6c-0.4,0.3-0.8,0.5-1.3,0.7s-1,0.4-1.5,0.5s-1,0.2-1.6,0.3c-0.5,0.1-1,0.1-1.5,0.1
				c-0.9,0-1.7-0.1-2.5-0.3s-1.6-0.5-2.3-1c-0.7-0.4-1.4-0.9-1.9-1.5s-1.1-1.2-1.5-1.9c-0.4-0.7-0.7-1.5-1-2.3
				c-0.2-0.8-0.3-1.7-0.3-2.5s0.1-1.7,0.3-2.5c0.2-0.8,0.5-1.6,1-2.3c0.4-0.7,0.9-1.4,1.5-1.9s1.2-1.1,1.9-1.5
				c0.7-0.4,1.5-0.7,2.3-1s1.7-0.3,2.5-0.3c1,0,1.9,0.1,2.8,0.4c0.9,0.3,1.7,0.7,2.5,1.2c0.1,0.1,0.2,0.2,0.3,0.3s0.1,0.3,0,0.5
				l-2,2.9c-0.1,0.1-0.2,0.2-0.3,0.3S116.3,68,116.2,67.9z"/>
			<path d="M123.3,63.2c0-0.2,0-0.3,0.1-0.4c0.1-0.1,0.2-0.2,0.4-0.2h4.1c0.1,0,0.2,0,0.4,0.1c0.1,0.1,0.2,0.2,0.3,0.3
				c1.1,1.7,2.1,3.4,3.2,5.1c1,1.7,2.1,3.3,3.2,5.1v-10c0-0.2,0.1-0.3,0.2-0.4c0.1-0.1,0.2-0.1,0.4-0.1h3.6c0.2,0,0.3,0,0.4,0.1
				c0.1,0.1,0.2,0.2,0.2,0.4v17.5c0,0.2,0,0.3-0.2,0.4c-0.1,0.1-0.2,0.1-0.4,0.1h-4c-0.1,0-0.2,0-0.3-0.1s-0.2-0.2-0.3-0.3
				c-1.1-1.8-2.2-3.7-3.3-5.4c-1.1-1.8-2.2-3.6-3.3-5.4v10.8c0,0.2,0,0.3-0.1,0.4s-0.2,0.1-0.5,0.1h-3.6c-0.2,0-0.3-0.1-0.4-0.2
				s-0.1-0.2-0.1-0.4L123.3,63.2L123.3,63.2z"/>
			<path d="M146.1,75.3c0.1,0.1,0.3,0.3,0.5,0.5s0.5,0.4,0.8,0.6c0.4,0.3,0.8,0.5,1.3,0.7c0.4,0.2,0.9,0.2,1.3,0.2
				c0.4,0,0.8,0,1.1-0.1s0.5-0.2,0.7-0.4s0.3-0.3,0.4-0.5c0.1-0.2,0.1-0.4,0.1-0.7c0-0.3-0.1-0.5-0.3-0.7s-0.4-0.4-0.7-0.5
				c-0.3-0.2-0.6-0.3-0.9-0.4c-0.3-0.1-0.6-0.2-0.8-0.3c-1-0.3-1.9-0.7-2.6-1.1c-0.8-0.4-1.4-0.9-1.9-1.4s-0.9-1-1.1-1.6
				c-0.2-0.6-0.4-1.3-0.4-2c0-0.8,0.2-1.5,0.5-2.1s0.8-1.2,1.3-1.6s1.3-0.8,2.1-1s1.7-0.4,2.7-0.4c0.8,0,1.5,0.1,2.2,0.3
				s1.4,0.4,2.1,0.8c0.3,0.2,0.6,0.3,0.8,0.5c0.2,0.2,0.5,0.4,0.7,0.5c0.2,0.2,0.3,0.3,0.5,0.5c0.2,0.2,0.2,0.3,0.2,0.4
				s0,0.2-0.1,0.3s-0.1,0.2-0.2,0.3l-1.9,2c-0.1,0.1-0.3,0.2-0.4,0.2c-0.1,0-0.2,0-0.3-0.1s-0.2-0.1-0.3-0.2l-0.1-0.1
				c-0.2-0.1-0.4-0.3-0.6-0.4s-0.4-0.3-0.7-0.4c-0.2-0.1-0.5-0.2-0.7-0.3s-0.5-0.1-0.8-0.1s-0.5,0-0.8,0.1c-0.2,0-0.5,0.1-0.6,0.2
				c-0.2,0.1-0.3,0.2-0.4,0.4c-0.1,0.2-0.2,0.4-0.2,0.6s0.1,0.4,0.2,0.6s0.3,0.3,0.5,0.5c0.2,0.1,0.5,0.3,0.9,0.4
				c0.3,0.1,0.7,0.3,1.2,0.4c0.9,0.3,1.7,0.6,2.4,0.9s1.4,0.7,1.9,1.1s1,1,1.3,1.6s0.5,1.3,0.5,2.2c0,0.9-0.2,1.8-0.6,2.5
				c-0.4,0.7-0.9,1.4-1.5,1.9c-0.7,0.5-1.4,0.9-2.3,1.2c-0.9,0.3-1.8,0.4-2.9,0.4c-1,0-1.9-0.2-2.8-0.5c-0.9-0.3-1.8-0.8-2.6-1.4
				c-0.3-0.2-0.6-0.5-0.8-0.7s-0.4-0.4-0.5-0.6l0,0l0,0l0,0l0,0l0,0c-0.2-0.2-0.3-0.4-0.3-0.5s0.1-0.3,0.3-0.5l2.2-2.1
				C145.8,75.3,145.9,75.2,146.1,75.3c0.1-0.1,0.2-0.1,0.2,0C145.9,75.1,146,75.2,146.1,75.3z"/>
		</g>
	</g>
	<g>
		<g>
			<path class="st2" d="M88,60.3c0.2-0.9,0.4-1.9,0.6-2.9c0.5-2,1.1-3.7,1.8-5.2c-0.7,0.1-2.1,0.1-3.3-0.8c-2.2-1.4-2.3-4.2-2.4-4.9
				c-0.1-3.6,3-7.6,3.4-8.2c0.4-0.7,2.4-9.8,2.9-10c0.5-0.1,3.6,6.4,3.6,6.4s6.6-3,10.7,2c0,0,5.2-5.2,6.3-5.3
				c1,0.5,1.9,6.4,0.6,11.3c-1.6,6.1-6,10.5-8.9,11.9c-0.3,0.2-1.4,0.7-3,1.5c-1.9,1-3.4,2-4.2,2.5c-3.4,2.4-6,6.3-7,8"/>
		</g>
		<g>
			<path d="M52.3,66.4L52.3,66.4c-0.5,0-0.6-0.2-0.6-0.5v-0.2c0.3-1.7,1-4,2-6.8s2.1-5.4,3.1-7.9l1.9-4.8c0.2-0.4,0.2-0.7,0.2-0.8
				c0-0.2-0.2-0.2-0.5-0.2c-0.2,0-0.4,0-0.8,0c-1.3,0.1-2.2,0.2-2.7,0.2c-0.3,0-0.5-0.1-0.5-0.2c0-0.1,0.3-0.2,0.9-0.3
				c0.6-0.1,1.4-0.2,2.3-0.2c0.4,0,0.8,0,1-0.1c0.2,0,0.4-0.1,0.5-0.1s0.2-0.1,0.3-0.2c0.1-0.1,0.3-0.5,0.6-1.1
				c0.3-0.7,0.6-1.4,0.9-2.2c0.3-0.8,0.6-1.4,0.7-2c0-0.1,0.1-0.3,0.2-0.6c0.1-0.2,0.1-0.5,0.2-0.7s0.1-0.4,0.2-0.4
				c0.1-0.1,0.3-0.2,0.4-0.2c0.2,0,0.4,0,0.6,0.1c0.2,0.1,0.3,0.2,0.3,0.4c0,0.3-0.2,0.9-0.5,1.7s-0.6,1.7-1,2.5
				c-0.5,1.2-0.8,1.9-0.8,2.1c0,0.1,0.1,0.2,0.2,0.2c0.1,0,0.1,0,0.2,0c0.1,0,0.3,0,0.5-0.1h0.1c3.9-0.6,7.9-1.1,12-1.5
				c0.3,0,0.5,0,0.7-0.1c0.1,0,0.2-0.1,0.3-0.3c0.1-0.2,0.4-0.9,0.9-2.1c1.6-4.4,3-7.7,4.1-9.9c0.2-0.6,0.5-0.9,0.8-0.9
				c0.2,0,0.4,0.1,0.5,0.2c0,0,0,0.1,0,0.2V30c-0.2,0.6-0.5,1.5-1,2.7c-0.8,1.9-1.9,4.7-3.2,8.5c0,0.1,0,0.2,0,0.3
				c0,0.4,0.4,0.6,1.2,0.6c0.3,0,0.8,0,1.4-0.1c0.3,0,0.8-0.1,1.5-0.1c1,0,2-0.1,3-0.1c0.3,0,0.6,0,1,0s0.6,0,0.6,0.1V42
				c0,0,0,0.1-0.1,0.1c0,0-0.2,0.1-0.5,0.1s-0.8,0.1-1.6,0.1c-0.1,0-0.5,0-1.2,0.1c-0.7,0-1.5,0.1-2.3,0.1c-0.9,0.1-1.7,0.1-2.3,0.2
				c-0.7,0.1-1.1,0.1-1.2,0.2c-0.1,0.1-0.3,0.6-0.7,1.5l-1,2.6c-0.8,1.9-1.5,4-2.3,6.1s-1.2,3.5-1.2,4.1c0,0.4-0.3,0.6-0.8,0.6
				c-0.2,0-0.4-0.1-0.4-0.1c-0.1-0.1-0.1-0.2-0.1-0.3c0-0.3,0.1-0.8,0.4-1.6c1-3.1,2.4-7.2,4.3-12.2c0-0.1,0-0.2,0-0.2
				s0-0.1-0.1-0.1c0-0.1-0.1-0.1-0.3-0.1c-0.2,0-1.5,0.1-3.9,0.4c-4.8,0.6-7.8,0.9-9,1.1h-0.2c-0.3,0-0.5,0.1-0.6,0.2
				c-0.1,0.1-0.3,0.2-0.4,0.5s-0.3,0.7-0.5,1.2L59.9,47c-2.5,6.4-4.8,12.6-7,18.8c-0.1,0.3-0.2,0.5-0.3,0.5
				C52.5,66.4,52.4,66.4,52.3,66.4z"/>
			<path d="M80.7,60.8c-0.5,0-1-0.2-1.6-0.4c-0.7-0.4-1-1.2-1-2.5c0-1.5,0.4-3.1,1.2-4.8c0.8-1.7,1.7-2.9,2.7-3.5
				c0.4-0.2,0.8-0.2,1.2-0.2c0.3,0,0.6,0.1,0.8,0.2c0.5,0.3,0.8,0.9,0.8,1.6c0,0.7-0.1,1.3-0.4,2s-0.6,1.3-0.9,1.7
				c-0.4,0.5-0.8,0.7-1.4,0.7c-0.5,0-1.2-0.2-1.8-0.6l-0.1-0.1c-0.1,0-0.2,0.2-0.3,0.5s-0.2,0.8-0.3,1.3c-0.1,0.5-0.1,1-0.1,1.5
				c0,1.3,0.3,1.9,0.9,1.9h0.2c0.8-0.2,1.7-0.8,2.8-1.8s2.2-2,3.2-3.1c0.8-0.8,1.5-1.5,2.1-2s1-0.8,1.2-0.8H90
				c0.2,0.1,0.3,0.3,0.3,0.4c0,0.1,0,0.1-0.1,0.2c-1,1-1.9,1.9-2.8,2.8c-0.9,0.9-1.7,1.7-2.5,2.5c-0.8,0.7-1.5,1.3-2.2,1.8
				C82.1,60.6,81.4,60.8,80.7,60.8z M82.2,54.4c0.1,0,0.2-0.1,0.3-0.3c0.3-0.4,0.5-0.8,0.6-1.3c0.2-0.5,0.2-1,0.2-1.4
				c0-0.2,0-0.3,0-0.5c0-0.1-0.1-0.3-0.1-0.3c0-0.1-0.1-0.1-0.1-0.2c-0.2,0-0.6,0.4-1.2,1.2c-0.7,0.8-1,1.3-1,1.5
				c0,0.1,0.1,0.2,0.2,0.2c0.3,0.1,0.4,0.2,0.5,0.4c0,0.1,0.1,0.2,0.2,0.3S82,54.2,82.2,54.4C82.1,54.4,82.1,54.4,82.2,54.4z"/>
			<path d="M102.9,55L102.9,55c-0.9,1-1.9,0.8-3.2,1.5c-0.3,0.1-0.1,0.1-0.7,0.4c-0.6,0.4-1.7,1-2.3,1.2c-0.1,0-0.1,0.1-0.3,0.1
				c-0.1,0.1-0.2,0.1-0.4,0.4c-0.1,0.1-0.2,0.2-0.3,0.2c-0.1,0-0.1-0.1-0.2-0.1s-0.2,0-0.2,0c-0.2,0-0.4-0.2-0.6-0.4
				C94.3,57.9,94,57.1,94,56c0-0.3,0-0.5,0-0.8s0-0.4,0-0.6c0-0.3-0.1-0.5-0.2-0.6c-0.1,0-0.2,0.1-0.4,0.2c-0.5,0.5-1.1,1.1-1.8,2
				c-0.7,0.8-1.2,1.6-1.7,2.2c-0.4,0.7-0.8,1.2-1.1,1.6c-0.3,0.4-0.5,0.6-0.6,0.8S87.9,61,87.8,61s-0.3,0-0.4-0.1
				c-0.4-0.2-0.6-0.4-0.6-0.6c0-0.6,0.5-2.3,1.4-5.1l1.1-3.2c0.1-0.2,0.2-0.4,0.3-0.5c0.1-0.1,0.4-0.1,0.6-0.1
				c0.3,0,0.5,0.1,0.5,0.4c0,0.1,0,0.1,0,0.2c-0.1,0.2-0.2,0.6-0.5,1.3c-0.2,0.7-0.5,1.4-0.7,2.1c-0.2,0.7-0.3,1.2-0.3,1.3
				c0,0,0.4-0.3,1-1c1.7-1.9,2.8-3,3.3-3.3c0.2-0.1,0.4-0.1,0.6-0.1c0.5,0,0.8,0.2,1.1,0.6c0.1,0.1,0.1,0.3,0.1,0.6s0,0.7-0.1,1.1
				c-0.1,0.5-0.1,1-0.1,1.5s0.1,0.9,0.2,1.2c0,0.1,0.1,0.1,0.1,0.2c0,0.1,0,0.1,0.1,0.1c0.1,0.1,0.2,0.3,0.3,0.4
				c0.3,0.1,0.5,0,1.2-0.4c0.8-0.4,0.9-0.3,1.2-0.6c0.5-0.3,0.4-0.3,0.8-0.6c0.5-0.3,0.7-0.3,1.3-0.7c0.5-0.3,0.5-0.4,1-0.6
				c0.4-0.2,0.8-0.3,1.1-0.4"/>
			<path d="M112.1,62.9c0.1,0,0.1,0.2,0.2,0.4c0.2,0.3,0.4,0.3,0.4,0.4c0,0.1-0.1,0.2-0.4,0.4c-0.1,0-0.1,0.1-0.3,0.2
				c-0.1,0.1-0.1,0.1-0.2,0.1c-0.5,0.4-0.9,0.7-1,0.8c-0.5,0.4-0.8,0.6-1.3,0.8c-0.5,0.2-1.1,0.3-1.1,0.3c-0.1,0-0.1,0-0.2,0
				c-0.2,0-1,0-1.6-0.6c-0.5-0.5-0.8-1.2-0.9-2.2v-0.6c0-0.5,0-1,0.1-1.5c0.4-2.5,1.2-5.4,2.4-8.6c1.2-3.3,2.8-6.6,4.7-9.9
				c1.9-3.3,4-6.2,6.4-8.7c2.3-2.5,4.8-4.3,7.3-5.2c0.5-0.2,1.1-0.3,1.7-0.3c0.1,0,0.3,0,0.7,0s0.8,0.2,1.3,0.6
				c0.2,0.3,0.4,0.6,0.4,0.9c0,0.2,0,0.4-0.1,0.8s-0.3,0.8-0.5,1.2c-1.2,2.1-2.5,4-4,5.7c-1,1.3-2,2.6-2.9,3.9
				c-0.1,0.2-0.3,0.4-0.4,0.4h-0.1c-0.4-0.1-0.6-0.3-0.6-0.5c0-0.4,1-1.9,2.9-4.6c0.7-1,1.3-1.9,1.9-2.6c0.6-0.8,0.9-1.2,1-1.4
				c0.5-0.8,0.8-1.5,1.1-2.1c0.1-0.4,0.2-0.6,0.2-0.8c0-0.1,0-0.3-0.1-0.3c-0.1-0.1-0.1-0.1-0.3-0.1c-0.3,0-0.7,0.1-1.3,0.3
				c-0.6,0.2-1.4,0.6-2.2,1.1c-2,1.3-4.1,3.2-6.2,6c-2.1,2.7-4.1,5.8-5.9,9.1c-1.8,3.4-3.3,6.6-4.4,9.8s-1.7,5.7-1.7,7.6
				c0,0.3,0,0.7,0.1,1c0.1,0.3,0.2,0.6,0.3,0.7c0,0,0.1,0.1,0.2,0.1c0.9,0.3,3.2-1.7,3.5-2c0.1-0.1,0.1-0.1,0.3-0.3
				c0.1-0.1,0.2-0.2,0.3-0.3C111.9,63,112,62.9,112.1,62.9z"/>
			<path d="M127.7,59.7c-0.2,0-0.3,0-0.5,0c-0.5-0.1-0.9-0.3-1.1-0.6s-0.4-0.6-0.5-1s-0.1-0.8-0.1-1.2v-0.7l0,0
				c-0.1,0-0.4,0.2-0.8,0.6c-0.4,0.4-0.9,0.8-1.4,1.1s-1,0.6-1.4,0.6c-1,0-1.5-0.4-1.6-1.2c0-0.6,0.1-1.2,0.4-1.9s0.6-1.4,1.1-2.1
				c0.5-0.7,1-1.2,1.6-1.7c0.6-0.4,1.2-0.7,1.9-0.7c0.8,0,1.2,0.2,1.3,0.7l0.2,0.6c0,0,0,0,0.1-0.1s0.1-0.3,0.3-0.5
				c0.1-0.2,0.3-0.4,0.4-0.7c0.2-0.2,0.3-0.4,0.4-0.4c0.1-0.1,0.2-0.1,0.4-0.2c0.2-0.1,0.4-0.1,0.6-0.1c0.4,0,0.7,0.2,0.7,0.6
				c0,0.2,0,0.3-0.1,0.4c0,0.1-0.1,0.1-0.2,0.1c-0.2,0.1-0.5,0.4-0.9,1s-0.7,1.3-1,2c-0.4,1.2-0.6,2.3-0.6,3.2
				c0,0.7,0.1,1.2,0.4,1.5c0,0,0.1,0.1,0.2,0.1c0.8-0.1,1.7-0.5,2.6-1.3c1.5-1.3,2.9-2.8,4.3-4.7c0.2-0.3,0.4-0.5,0.6-0.5
				c0.1,0,0.1,0,0.2,0s0.1,0.1,0.1,0.1c0.2,0.1,0.3,0.2,0.3,0.3c-0.1,0.4-0.7,1.3-1.8,2.7c-0.9,1.1-1.9,2.1-2.9,2.9
				C129.8,59.2,128.7,59.7,127.7,59.7z M122,57.4c0.1,0,0.3-0.1,0.6-0.4c0.6-0.5,1.3-1.1,2-2s1.3-1.6,1.7-2.2
				c-0.1-0.1-0.2-0.1-0.3-0.2c-0.1,0-0.2-0.1-0.3-0.2c-0.1-0.1-0.1-0.2-0.1-0.3v-0.3c0-0.2-0.1-0.3-0.2-0.3c-0.2,0-0.6,0.3-1.1,0.8
				s-1,1.1-1.4,1.9c-0.4,0.7-0.7,1.5-0.9,2.2c-0.1,0.3-0.1,0.6-0.1,0.8C121.9,57.4,121.9,57.4,122,57.4z"/>
			<path d="M128.3,75.2L128.3,75.2c-0.2,0-0.3-0.2-0.3-0.6v-0.2c0.9-5.1,2.2-10.2,4-15.3s3.5-9.4,5-12.9c0.1-0.3,0.2-0.5,0.2-0.6
				s-0.1-0.2-0.3-0.2h-0.8c-0.5,0.1-1.4,0.1-2.8,0.1c-0.5,0-1,0-1.3-0.1c-0.4,0-0.7-0.1-0.8-0.3s-0.2-0.3-0.2-0.3
				c0-0.1,0-0.1,0.1-0.2c0.2,0,0.4,0,0.6,0c1.2-0.1,2.2-0.1,2.9-0.1c1.3,0,2.1-0.1,2.4-0.1c0.3,0,0.6-0.1,0.6-0.2
				c0.3-0.2,0.9-1.2,1.7-3c0.5-1,1-1.9,1.5-2.8c0.7-1.3,1.3-1.9,1.7-1.9c0.2,0,0.3,0,0.5,0.1s0.3,0.2,0.3,0.3
				c-0.2,0.3-0.4,0.6-0.6,0.9c-0.9,1.3-1.8,2.8-2.5,4.3l-0.7,1.3c-0.1,0.2-0.2,0.5-0.2,0.6c0.1,0,1.3,0.1,3.7,0.1c1.2,0,2.3,0,3.5,0
				c0.3,0,0.4,0.1,0.4,0.3s-0.1,0.4-0.3,0.4c-0.2,0.1-0.4,0.1-0.6,0.1c-4.7,0-7.1,0.1-7.4,0.2c-0.8,1.6-1.9,4.2-3.2,7.8
				c-1.4,3.6-2.6,7.4-3.9,11.3c-1.3,3.9-2,7.2-2.5,9.9c0,0.3-0.1,0.5-0.2,0.6c-0.2,0.1-0.3,0.1-0.5,0.1
				C128.5,75.1,128.4,75.2,128.3,75.2z"/>
		</g>
	</g>
</g>
<g id="Layer_3">
</g>
</svg>
